<?xml version="1.0" encoding="UTF-8" standalone="no"?>
<!-- Created with Inkscape (http://www.inkscape.org/) -->

<svg xml:space="preserve" viewBox="0 0 499 315" height="60%" width="100%" y="0px" x="0px" xmlns:xlink="http://www.w3.org/1999/xlink" xmlns="http://www.w3.org/2000/svg" baseProfile="tiny" version="1.2">
  <g
     inkscape:label="Layer 1"
     inkscape:groupmode="layer"
     id="layer1">
    <path
       id="path2997"
       style="fill:#326fc0;fill-opacity:1;fill-rule:nonzero;stroke:none"
       d="m -651.15972,786.55424 c -61.4061,0 -121.0779,-28.842 -121.0779,-81.423 0,-35.823 27.7029,-55.311 65.0391,-58.23 -17.2032,47.331 -31.0899,85.641 -31.0899,85.641 l 73.5468,0 c 0,0 12.0468,-32.838 27.4923,-74.976 31.1601,12.525 46.0311,31.125 46.0311,31.125 l 24.375,-65.907 c 0,0 -16.1718,-15.96 -46.9218,-29.205 5.6952,-15.561 11.2968,-30.888 16.5,-45.093 31.9923,-3.528 56.8599,-15.339 56.8599,-15.339 0,64.347 19.839,96.411 19.839,141.222 0,89.097 -72.3981,112.185 -130.5936,112.185 z m -29.5194,-361.467 c 0,-20.331 12.0939,-34.335 27.2931,-34.335 9.5976,0 25.4529,5.226 25.4529,31.593 0,9.471 -10.9803,36.012 -15,47.262 -0.3162,0.963 -1.3125,3.645 -2.6952,7.536 -25.5234,-10.617 -35.0508,-38.694 -35.0508,-52.056 z m 215.18099,97.197 c 0,-64.314 21.15,-103.443 21.15,-103.443 l -75.79499,0 c -7.149,31.044 -19.419,52.161 -51.9969,60.774 l 0.879,-2.52 c 6.0819,-17.541 14.9178,-48.666 14.9178,-66.936 0,-48.456 -33.4686,-87.75 -93.129,-87.75 -57.1404,0 -103.488,45.27 -103.488,102.528 0,57.012 36.2694,97.851 84.4803,115.218 -4.2186,11.661 -8.7303,24.081 -13.3593,36.843 -6.1758,-0.48 -12.4572,-0.843 -19.0665,-0.843 -114.4452,0 -147.7734,78.117 -147.7734,127.137 0,96 89.3673,156.444 197.3202,156.444 90.4104,0 207.61079,-47.214 207.61079,-179.436 0,-56.814 -21.75,-111.399 -21.75,-158.016"
       inkscape:connector-curvature="0" />
    <path
       id="path3001"
       style="fill:#3b383d;fill-opacity:1;fill-rule:nonzero;stroke:none"
       d="m -134.18713,500.30024 0,-16.665 14.427,0 c 6.315,0 10.581,-2.262 10.581,-9.927 l 0,-96.432 c 0,-6.762 -2.931,-9.681 -11.931,-9.681 l -13.077,0 0,-16.674 82.464008,0 0,16.674 -12.609,0 c -9.924,0 -13.299,2.25 -13.299,10.137 l 0,106.113 36.738,0 c 23.202,0 28.827,-12.843 30.855,-47.766 l 16.674,0 0,64.221 -140.823008,0"
       inkscape:connector-curvature="0" />
    <path
       id="path3003"
       style="fill:#3b383d;fill-opacity:1;fill-rule:nonzero;stroke:none"
       d="m 44.735878,348.21224 c 8.775,0 16.218,7.209 16.218,16.233 0,9 -7.443,16.218 -16.218,16.218 -8.802,0 -16.23,-7.218 -16.23,-16.218 0,-9.024 7.428,-16.233 16.23,-16.233 z m -29.754,152.088 0,-14.871 10.359,0 c 6.315,0 9.012,-2.475 9.012,-9.012 l 0,-57.693 c 0,-6.516 -2.697,-9.012 -9.012,-9.012 l -10.359,0 0,-14.859 45.972,0 0,81.564 c 0,6.537 2.694,9.012 9,9.012 l 11.052,0 0,14.871 -66.024,0"
       inkscape:connector-curvature="0" />
    <path
       id="path3005"
       style="fill:#3b383d;fill-opacity:1;fill-rule:nonzero;stroke:none"
       d="m 86.183878,394.85324 21.411002,0 0,-5.859 c 0,-28.839 15.315,-42.585 38.976,-42.585 14.415,0 31.548,8.565 31.548,25.02 0,9 -5.193,15.537 -14.427,15.537 -8.343,0 -14.649,-5.637 -14.649,-13.065 0,-6.984 4.959,-11.496 11.484,-12.399 l -0.444,-0.669 c -3.153,-2.037 -7.206,-3.15 -11.04,-3.15 -11.718,0 -14.871,7.887 -14.871,18.012 l 0,19.158 22.992,0 0,14.859 -22.992,0 0,66.705 c 0,6.537 2.709,9.012 9.012,9.012 l 13.746,0 0,14.871 -70.512002,0 0,-14.871 12.153,0 c 6.315002,0 9.024002,-2.475 9.024002,-9.012 l 0,-66.705 -21.411002,0 0,-14.859"
       inkscape:connector-curvature="0" />
    <path
       id="path3007"
       style="fill:#3b383d;fill-opacity:1;fill-rule:nonzero;stroke:none"
       d="m 240.07488,435.41324 c 0.222,-14.193 -4.29,-28.173 -20.286,-28.173 -15.315,0 -20.952,13.98 -21.621,28.173 l 41.907,0 z m -41.907,14.871 c -0.678,17.577 4.734,36.492 25.665,36.492 16.242,0 24.339,-8.331 27.27,-23.871 l 18.702,0 c -2.928,25.686 -18.468,40.782 -48.432,40.782 -34.923,0 -53.403,-19.608 -53.403,-56.109 0,-32.895 21.174,-56.112 52.266,-56.112 36.948,0 52.512,33.129 50.037,58.818 l -72.105,0"
       inkscape:connector-curvature="0" />
    <path
       id="path3009"
       style="fill:#3b383d;fill-opacity:1;fill-rule:nonzero;stroke:none"
       d="m 390.60288,475.97024 c 0,5.403 5.391,7.665 10.125,7.665 l 13.968,0 0,16.665 -70.512,0 0,-16.665 13.278,0 c 7.218,0 9.702,-2.262 9.702,-7.665 l 0,-100.722 c 0,-5.403 -3.621,-7.653 -8.787,-7.653 l -14.193,0 0,-16.674 70.734,0 30.411,97.557 0.468,0 34.254,-97.557 68.04,0 0,16.674 -15.093,0 c -5.193,0 -8.79,2.25 -8.79,7.653 l 0,97.56 c 0,7.218 3.375,10.827 9.678,10.827 l 14.205,0 0,16.665 -78.201,0 0,-16.665 14.883,0 c 6.084,0 9.681,-3.165 9.681,-7.665 l 0,-102.525 -0.435,0 -43.053,126.855 -18.693,0 -41.238,-126.855 -0.432,0 0,102.525"
       inkscape:connector-curvature="0" />
    <path
       id="path3011"
       style="fill:#3b383d;fill-opacity:1;fill-rule:nonzero;stroke:none"
       d="m 622.88988,444.63524 -23.88,10.827 c -6.54,2.931 -13.512,6.528 -13.512,17.121 0,9.471 4.275,14.193 13.512,14.193 15.339,0 23.88,-13.068 23.88,-27.492 l 0,-14.649 z m 52.491,16.464 0,6.762 c 0,25.218 -10.125,35.826 -29.064,35.826 -11.262,0 -20.94,-4.734 -22.746,-16.677 -8.331,12.609 -22.746,16.677 -36.948,16.677 -17.58,0 -31.326,-8.346 -31.326,-28.617 0,-43.725 67.593,-22.548 67.593,-54.318 0,-14.415 -12.15,-17.109 -24.105,-17.109 -6.315,0 -16.899,2.016 -20.952,7.431 8.343,-1.137 14.871,2.472 14.871,11.718 0,10.137 -6.996,13.287 -15.786,13.287 -9.666,0 -16.206,-7.44 -16.206,-16.662 0,-22.992 27.492,-27.951 45.294,-27.951 30.42,0 43.476,13.746 43.476,32.685 l 0,55.194 c 0,4.959 2.028,7.431 5.412,7.431 3.375,0 6.096,-3.141 6.096,-17.121 l 0,-8.556 14.391,0"
       inkscape:connector-curvature="0" />
    <path
       id="path3013"
       style="fill:#3b383d;fill-opacity:1;fill-rule:nonzero;stroke:none"
       d="m 733.29288,486.10724 c 15.105,0 27.048,-12.621 27.048,-39.891 0,-24.549 -11.943,-37.17 -27.048,-37.17 -15.081,0 -23.178,12.621 -23.178,38.532 0,25.908 8.097,38.529 23.178,38.529 z m 27.048,-4.278 -0.456,0 c -9.012,15.318 -20.499,21.858 -35.37,21.858 -31.323,0 -44.613,-28.395 -44.613,-56.109 0,-27.717 16.455,-56.112 44.613,-56.112 17.79,0 30.189,11.04 35.37,19.383 l 0.456,0 0,-35.154 c 0,-6.75 -2.262,-9.903 -9.246,-9.903 l -14.193,0 0,-14.871 50.028,0 0,124.593 c 0,6.762 2.028,9.915 9.012,9.915 l 11.718,0 0,14.871 -47.319,0 0,-18.471"
       inkscape:connector-curvature="0" />
    <path
       id="path3015"
       style="fill:#3b383d;fill-opacity:1;fill-rule:nonzero;stroke:none"
       d="m 881.34888,435.41324 c 0.21,-14.193 -4.278,-28.173 -20.286,-28.173 -15.315,0 -20.952,13.98 -21.633,28.173 l 41.919,0 z m -41.919,14.871 c -0.669,17.577 4.722,36.492 25.677,36.492 16.242,0 24.351,-8.331 27.279,-23.871 l 18.693,0 c -2.931,25.686 -18.468,40.782 -48.435,40.782 -34.92,0 -53.4,-19.608 -53.4,-56.109 0,-32.895 21.174,-56.112 52.275,-56.112 36.951,0 52.5,33.129 50.028,58.818 l -72.117,0"
       inkscape:connector-curvature="0" />
    <path
       id="path3017"
       style="fill:#f0431d;fill-opacity:1;fill-rule:nonzero;stroke:none"
       d="m 53.066878,755.65124 c -10.944,25.077 -31.698,44.343 -59.403,47.919 -16.137,2.097 -36.432,2.379 -54.174,2.379 -11.85,0 -11.814,-12.633 -11.979,-14.496 -0.492,-5.463 -0.948,-10.362 -0.315,-15.87 0.282,-2.412 1.137,-4.71 1.359,-7.125 0.294,-2.988 -0.399,-5.976 -0.492,-8.964 -0.198,-7.161 -0.117,-14.448 0.891,-21.549 0.996,-6.987 -0.012,-13.701 0.141,-20.685 0.165,-7.476 -0.459,-15.057 -0.972,-22.512 -0.705,-10.044 -2.298,-20.52 -0.996,-30.561 0.642,-4.923 0.609,-9.834 0.537,-14.778 -0.045,-4.419 -0.69,-13.302 11.826,-13.302 l 1.71,0.048 c 20.589,0.633 40.431,-3.048 60.093,3.315 20.955,6.774 35.838,16.092 48.774,34.701 16.488,23.658 14.085,56.133 3,81.48 z m 58.935002,-83.121 c -8.04,-27.165 -24.774002,-50.883 -49.362002,-65.427 -25.287,-14.964 -55.287,-19.569 -84.198,-20.883 -29.319,-1.335 -53.964,-1.734 -83.214008,0.129 -3.387,0.213 -7.947,-0.012 -12.528,-0.012 -12.069,0 -12.012,9.153 -12.234,13.701 -2.064,41.085 -2.403,71.484 -3.645,92.682 -1.323,22.371 5.25,53.322 3.363,102.54 -0.561,14.556 -3.069,45.399 -0.129,57 0.681,2.685 2.754,5.016 6.762,5.016 30.585008,3.69 81.036008,2.319 107.040008,0.972 30.129,-1.557 64.266,-13.605 88.803,-31.512 22.068,-16.089 32.754002,-41.649 40.068002,-67.944 7.746,-27.855 7.488,-58.524 -0.726,-86.262"
       inkscape:connector-curvature="0" />
    <path
       id="path3019"
       style="fill:#489297;fill-opacity:1;fill-rule:nonzero;stroke:none"
       d="m 244.01088,857.92124 c -30.513,0 -59.694,-5.145 -71.226,-16.584 -30.561,-30.351 -32.262,-81.21 -27.174,-118.605 4.524,-33.351 27.27,-59.658 69.633,-65.625 6.396,-0.903 13.029,-1.347 19.746,-1.347 32.391,0 66.762,10.464 85.875,31.689 23.355,25.932 11.379,70.041 -30.609,73.509 -7.5,0.633 -14.427,0.846 -20.508,0.846 -8.967,0 -16.125,-0.459 -20.661,-0.738 -2.121,-0.141 -6.633,-0.237 -12.141,-0.237 -13.419,0 -32.754,0.552 -37.722,2.415 -8.04,2.847 -3.834,14.226 -0.084,24.351 6.576,17.754 21.282,22.512 41.838,24.975 8.976,1.077 16.722,1.416 24,1.416 6.129,0 11.916,-0.234 17.811,-0.48 5.883,-0.234 11.883,-0.48 18.423,-0.48 4.746,0 9.774,0.129 15.27,0.48 18.819,1.161 28.722,6.024 16.593,22.419 -10.266,13.887 -50.73,21.996 -89.064,21.996 m -9.351,-163.068 c -10.113,0 -20.085,0.915 -23.976,2.391 -7.44,2.802 -13.956,14.427 -9.633,27.423 1.242,3.69 7.488,4.452 14.589,4.452 3.669,0 7.548,-0.198 11.1,-0.315 15.033,-0.48 30.468,0.27 41.916,-7.572 11.556,-7.92 2.943,-18.678 -10.23,-23.718 -4.887,-1.875 -14.391,-2.661 -23.766,-2.661"
       inkscape:connector-curvature="0" />
    <path
       id="path3021"
       style="fill:#f38769;fill-opacity:1;fill-rule:nonzero;stroke:none"
       d="m 362.13588,644.19524 c 0.846,20.718 0.87,41.448 0.87,62.226 -0.012,22.593 -2.871,44.952 -4.512,67.452 -1.512,21.093 1.287,56.802 3.069,69.564 0.81,5.811 4.431,12.642 11.823,12.879 7.233,0.222 22.173,0 28.971,-0.117 7.383,-0.141 10.968,-3.471 11.085,-13.596 0.129,-11.154 -0.048,-26.496 -0.048,-35.766 0,-20.508 -0.525,-44.259 -1.581,-66.456 -1.101,-23.367 1.77,-92.307 2.004,-104.436 0.198,-9.987 0.702,-25.818 -0.21,-35.838 -0.822,-9.174 -3.903,-13.452 -11.463,-14.283 -7.605,-0.834 -17.508,-1.455 -25.71,-0.996 -4.536,0.255 -14.298,0.48 -15.129,14.121 -0.351,0.008 0.036,25.629 0.831,45.246"
       inkscape:connector-curvature="0" />
    <path
       id="path3023"
       style="fill:#bec243;fill-opacity:1;fill-rule:nonzero;stroke:none"
       d="m 479.14788,857.62724 c -3.303,0 -6.537,-0.234 -9.654,-0.903 -12.681,-2.67 -13.935,-13.686 -14.754,-25.311 -1.854,-26.262 -0.564,-52.968 0.972,-79.197 0.867,-15.246 1.992,-30.468 3.294,-45.678 0.621,-7.068 -0.237,-31.242 3.15,-37.734 4.29,-8.238 14.016,-8.625 22.137,-9.282 0,0 0.552,-0.024 1.488,-0.024 2.895,0 9.516,0.21 15.036,1.923 15.468,4.827 9.318,52.839 9.48,65.391 0.54,43.137 -1.839,86.262 -4.887,129.267 -0.315,-0.01 -0.609,-0.01 -0.912,-0.01 -4.092,0 -8.322,0.396 -12.588,0.783 -4.266,0.387 -8.565,0.774 -12.762,0.774"
       inkscape:connector-curvature="0" />
    <path
       id="path3025"
       style="fill:#bec243;fill-opacity:1;fill-rule:nonzero;stroke:none"
       d="m 484.28088,637.73624 c -16.416,0 -30.468,-14.085 -27.15,-33.738 1.875,-10.992 8.073,-17.682 16.182,-18.714 3.153,-0.984 6.375,-1.524 9.597,-1.524 7.101,0 14.286,2.589 21.342,8.637 12.327,10.629 10.509,32.355 -4.512,41.061 -5.1,2.931 -10.383,4.278 -15.459,4.278"
       inkscape:connector-curvature="0" />
    <path
       id="path3027"
       style="fill:#9fe0f0;fill-opacity:1;fill-rule:nonzero;stroke:none"
       d="m 775.15188,857.62724 c -4.206,0 -8.508,-0.387 -12.771,-0.774 -4.254,-0.387 -8.496,-0.783 -12.588,-0.783 -0.291,0 -0.609,0 -0.912,0.01 -3.036,-43.005 -5.391,-86.13 -4.887,-129.267 0.162,-12.552 -5.988,-60.564 9.468,-65.391 5.544,-1.713 12.165,-1.923 15.048,-1.923 0.936,0 1.488,0.024 1.488,0.024 8.133,0.657 17.835,1.044 22.146,9.282 3.387,6.492 2.532,30.666 3.141,37.734 1.302,15.21 2.415,30.432 3.306,45.678 1.536,26.229 2.811,52.935 0.972,79.197 -0.843,11.625 -2.073,22.641 -14.754,25.311 -3.129,0.669 -6.363,0.903 -9.657,0.903"
       inkscape:connector-curvature="0" />
    <path
       id="path3029"
       style="fill:#9fe0f0;fill-opacity:1;fill-rule:nonzero;stroke:none"
       d="m 770.00988,637.73624 c -5.064,0 -10.362,-1.347 -15.435,-4.278 -15.024,-8.706 -16.851,-30.432 -4.5,-41.061 7.02,-6.048 14.226,-8.637 21.306,-8.637 3.234,0 6.444,0.54 9.609,1.524 8.109,1.032 14.295,7.722 16.17,18.714 3.33,19.653 -10.734,33.738 -27.15,33.738"
       inkscape:connector-curvature="0" />
    <path
       id="path3031"
       style="fill:#736459;fill-opacity:1;fill-rule:nonzero;stroke:none"
       d="m 688.17588,722.04224 c -16.359,-12.351 -34.629,-24.141 -55.827,-16.806 -18.597,6.447 -32.298,24.129 -35.976,43.197 -6.588,34.146 20.754,70.287 57.012,66.291 13.839,-1.545 23.976,-9.621 33.444,-19.17 10.323,7.23 30.177,18.726 26.427,34.17 -1.806,7.431 -8.37,12.963 -14.496,16.935 -8.991,5.835 -19.302,9.657 -29.661,12.174 -21.201,5.205 -44.391,5.076 -64.617,-3.831 -17.907,-7.875 -32.262,-22.113 -43.044,-38.178 -10.875,-16.209 -18.561,-35.04 -19.452,-54.705 -0.903,-20.367 5.67,-40.371 16.476,-57.48 10.395,-16.476 24.843,-30.972 42.585,-39.387 18.141,-8.613 38.778,-10.125 58.5,-7.71 10.149,1.242 20.31,3.492 29.871,7.182 7.29,2.802 15.093,6.564 20.133,12.75 10.314,12.717 -2.178,26.871 -11.274,35.955 -3.267,3.27 -6.702,5.472 -10.101,8.613"
       inkscape:connector-curvature="0" />
    <path
       id="path3033"
       style="fill:#83bf49;fill-opacity:1;fill-rule:nonzero;stroke:none"
       d="m 975.73188,791.42924 c -11.016,18.432 -33.516,28.956 -54.597,23.295 -22.209,-6 -36.129,-28.077 -37.866,-50.178 -1.851,-23.463 9.318,-38.088 24.471,-54.528 2.754,-3.06 5.682,-3.69 8.367,-4.407 10.383,-2.718 21.387,-4.686 31.992,-1.899 10.581,2.778 19.137,10.149 24.996,19.233 12.807,19.851 14.916,47.904 2.637,68.484 z m 62.17802,-48.657 c -3.645,-23.367 -14.589,-44.577 -31.359,-61.23 -17.83502,-17.73 -29.33102,-24.516 -54.18602,-27.222 -2.709,-0.294 -14.322,-1.209 -17.04,-1.467 -19.782,2.496 -40.044,5.133 -57.96,14.484 -16.98,8.871 -30.105,23.358 -37.842,40.842 -8.367,18.891 -10.593,40.254 -8.097,60.666 2.556,21 10.266,41.895 24.306,57.963 13.815,15.819 32.613,24.492 52.089,31.254 2.379,0.819 4.758,1.641 7.137,2.46 19.605,1.782 38.355,2.343 56.871,-5.226 19.746,-8.076 39.06902,-20.919 51.43202,-38.556 14.931,-21.303 18.588,-48.678 14.649,-73.968"
       inkscape:connector-curvature="0" />
    <path
       id="path3035"
       style="fill:#d8bd8f;fill-opacity:1;fill-rule:nonzero;stroke:none"
       d="m 1077.3809,660.67124 c -3.366,0.456 -6.927,1.266 -7.713,10.662 -0.924,11.133 -1.383,34.266 -1.053,44.733 0.387,11.565 1.23,23.121 1.5,34.686 0.246,11.064 -0.117,22.125 -0.117,33.189 0.021,20.484 2.388,42.375 16.827,58.146 13.758,15.012 35.379,20.592 55.02,18.516 20.661,-2.178 36.891,-10.077 53.202,-22.416 1.935,-1.467 4.875,-5.838 6.798,-7.326 0.585,8.685 -3.609,26.649 10.359,25.923 11.169,-0.576 24.327,1.782 31.827,0 11.193,-2.661 9.6,-19.83 9.564,-30.21 -0.036,-15.177 0.164,-28.995 -0.142,-44.205 -0.492,-26.436 -2.718,-45.678 -0.234,-72.012 0.924,-9.843 0.082,-29.166 -1.02,-39.444 -1.125,-10.395 -13.56,-11.028 -23.298,-10.875 -10.008,0.141 -25.137,-0.294 -26.706,10.254 -1.44,9.537 -1.839,20.262 -0.492,31.242 1.665,13.476 1.617,32.355 1.464,45.924 -0.118,11.004 -0.024,22.245 -1.383,33.153 -1.254,9.867 -5.004,18.774 -13.065,24.939 -9.246,7.041 -21.774,9.936 -33.234,8.883 -10.278,-0.951 -21.693,-0.729 -26.988,-9.867 -4.992,-8.592 -5.943,-16.794 -7.161,-26.463 -1.371,-10.932 -1.077,-29.049 -1.641,-40.053 -0.609,-12.072 0.177,-24.072 0.948,-36.117 0.681,-10.221 0.693,-17.556 0.225,-31.395 -0.342,-9.669 -9.411,-10.197 -18.375,-10.02 -5.475,0.105 -19.701,-0.609 -25.113,0.153"
       inkscape:connector-curvature="0" />
    <path
       id="path3037"
       style="fill:#eab80e;fill-opacity:1;fill-rule:nonzero;stroke:none"
       d="m 1436.8049,700.80824 c 4.476,-5.355 4.71,-12.75 2.181,-19.044 -6.33,-15.702 -24.576,-20.262 -39.621,-22.512 -16.734,-2.484 -34.044,-3.891 -50.802,-0.972 -16.512,2.883 -33.093,9.855 -44.718,22.266 -12.234,13.032 -14.79,29.202 -11.895,46.347 0.585,3.528 0.75,6.867 2.355,10.056 1.701,3.327 3.363,6.63 5.205,9.879 3.666,6.492 7.884,12.771 13.545,17.718 8.835,7.77 20.238,9.726 31.593,10.803 13.092,1.242 26.838,1.56 39.06,6.903 8.682,3.774 17.532,11.649 14.79,22.089 -2.754,10.536 -14.487,15.633 -24.423,16.407 -13.149,1.02 -25.629,-4.206 -37.242,-9.762 -9.258,-4.44 -19.839,-10.698 -30.54,-9.093 -9.033,1.359 -15.762,8.895 -17.472,17.673 -5.061,25.791 27.75,35.037 46.806,37.686 23.25,3.27 48.888,3.996 71.517,-3 12.237,-3.786 24.189,-10.218 32.133,-20.52 8.064,-10.464 10.524,-23.694 8.955,-36.621 -1.536,-12.96 -6.48,-26.037 -14.508,-36.399 -7.713,-9.96 -18.387,-15.795 -30.423,-18.996 -13.803,-3.666 -28.182,-4.638 -41.928,-8.565 -7.512,-2.145 -21.657,-6.879 -19.701,-17.262 1.98,-10.569 16.338,-16.335 25.359,-18.645 12.504,-3.174 25.665,-2.004 37.044,4.197 3.246,1.758 6.327,3.795 9.234,6.057 2.601,2.052 4.125,3.129 7.383,2.028 5.859,-1.98 11.976,-3.762 16.113,-8.718"
       inkscape:connector-curvature="0" />
  </g>
</svg>
